<?xml version="1.0" standalone="no"?>
<!DOCTYPE svg PUBLIC "-//W3C//DTD SVG 20010904//EN"
 "http://www.w3.org/TR/2001/REC-SVG-20010904/DTD/svg10.dtd">
<svg version="1.0" xmlns="http://www.w3.org/2000/svg"
 width="200.000000pt" height="200.000000pt" viewBox="0 0 200.000000 200.000000"
 preserveAspectRatio="xMidYMid meet">
<metadata>
Created by potrace 1.14, written by Peter Selinger 2001-2017
</metadata>
<g transform="translate(0.000000,200.000000) scale(0.100000,-0.100000)"
fill="#000000" stroke="none">
<path d="M867 1564 c-229 -43 -432 -239 -483 -463 -20 -89 -13 -101 60 -101
42 0 57 5 74 23 12 13 22 31 22 41 0 9 5 27 11 39 12 21 11 21 -8 5 -11 -10
-28 -18 -39 -18 -11 0 -26 -6 -33 -12 -11 -11 -13 -10 -7 5 3 10 6 21 6 23 0
2 11 4 25 4 24 0 35 9 69 55 14 19 15 17 11 -20 -2 -22 -7 -52 -11 -67 -5 -22
-1 -32 22 -52 41 -36 56 -34 42 5 -6 17 -8 64 -6 105 l5 74 -33 6 c-39 7 -54
0 -47 -24 3 -13 -2 -18 -21 -20 -27 -2 -36 12 -13 21 9 4 8 8 -3 16 -12 8 -11
11 5 17 11 4 22 11 25 15 3 4 26 3 52 -3 46 -11 48 -10 76 19 15 17 49 44 75
61 l46 29 -25 12 c-14 6 -32 11 -40 11 -23 0 -55 20 -49 30 4 6 13 6 23 1 9
-5 36 -14 60 -20 23 -7 42 -15 42 -20 0 -4 30 0 67 10 92 23 108 44 99 132 -4
36 -13 67 -19 70 -7 2 -43 -2 -80 -9z m13 -88 c0 -8 -5 -18 -11 -21 -21 -14
-27 -49 -10 -62 14 -11 12 -12 -11 -13 -23 0 -28 4 -28 24 0 17 -9 27 -30 36
-16 7 -30 16 -30 21 0 12 11 11 40 -6 33 -19 35 -19 48 10 13 27 32 34 32 11z
m75 -6 c-3 -5 -12 -10 -19 -10 -8 0 -21 -10 -29 -22 -13 -19 -16 -20 -16 -6
-1 9 6 24 15 32 17 17 59 22 49 6z m-195 -50 c0 -5 -4 -10 -10 -10 -5 0 -10 5
-10 10 0 6 5 10 10 10 6 0 10 -4 10 -10z m-100 -75 c0 -8 -4 -15 -9 -15 -13 0
-22 16 -14 24 11 11 23 6 23 -9z m46 -40 c-1 -5 -30 -10 -62 -10 -32 0 -65 -4
-72 -9 -21 -13 -29 4 -9 19 22 16 149 16 143 0z"/>
<path d="M1021 1570 c-6 -3 -14 -37 -18 -74 -5 -61 -4 -69 17 -91 13 -14 31
-25 40 -25 10 0 37 -7 61 -15 27 -10 45 -12 49 -5 9 14 119 49 125 39 6 -9
-27 -29 -49 -29 -8 0 -27 -5 -42 -10 l-27 -11 39 -26 c21 -14 56 -42 76 -61
37 -35 38 -35 85 -24 29 6 49 7 51 1 2 -5 9 -9 16 -9 7 0 13 -13 13 -29 0 -23
-5 -29 -19 -28 -13 1 -18 7 -15 19 6 21 -12 28 -56 21 -35 -5 -35 -5 -25 -42
10 -36 6 -120 -7 -153 -11 -28 12 -21 45 12 26 27 28 33 18 60 -6 17 -8 34 -5
37 4 3 2 14 -4 24 -16 31 7 22 31 -11 13 -19 30 -30 44 -30 25 0 54 -26 42
-37 -4 -4 -10 -3 -14 3 -4 6 -21 14 -39 17 -30 6 -32 5 -31 -23 1 -42 44 -70
107 -70 70 0 76 15 51 115 -28 111 -73 189 -160 276 -58 58 -95 86 -160 118
-84 41 -217 75 -239 61z m99 -105 c10 -26 20 -31 36 -16 14 13 54 23 54 14 0
-5 -15 -17 -34 -26 -27 -12 -33 -20 -29 -36 4 -17 1 -21 -21 -21 -23 0 -25 2
-14 19 9 15 8 24 -5 45 -19 29 -22 46 -7 46 6 0 15 -11 20 -25z m-58 -2 c19
-17 24 -43 8 -43 -5 0 -10 7 -10 15 0 8 -11 17 -25 21 -14 3 -25 10 -25 15 0
15 32 10 52 -8z m168 -43 c0 -5 -4 -10 -10 -10 -5 0 -10 5 -10 10 0 6 5 10 10
10 6 0 10 -4 10 -10z m105 -69 c7 -12 -12 -24 -25 -16 -11 7 -4 25 10 25 5 0
11 -4 15 -9z m72 -53 c10 -10 12 -18 6 -18 -7 0 -15 5 -18 10 -4 6 -33 9 -67
8 -34 -2 -62 1 -64 7 -2 6 22 10 61 10 48 0 69 -4 82 -17z"/>
<path d="M947 1298 c-94 -115 -101 -220 -17 -287 l39 -31 10 32 9 33 1 -32 c1
-18 4 -33 9 -33 4 0 24 15 44 34 79 73 70 180 -25 290 l-33 39 -37 -45z m69
-130 c43 -34 22 -98 -31 -98 -54 0 -73 64 -30 102 15 13 26 33 27 52 1 31 1
31 5 -3 3 -21 14 -42 29 -53z"/>
<path d="M820 1242 c0 -28 5 -42 17 -46 37 -15 42 47 6 72 -23 14 -23 14 -23
-26z"/>
<path d="M1120 1264 c-14 -10 -26 -18 -28 -19 -5 -4 21 -55 28 -55 17 0 31 31
28 60 -3 30 -3 30 -28 14z"/>
<path d="M679 1189 c-4 -108 24 -195 67 -210 19 -7 20 -4 16 48 -3 35 -1 58 7
62 7 5 3 18 -14 41 -14 19 -25 36 -25 38 0 3 27 -21 60 -53 34 -31 63 -56 64
-54 2 2 1 28 -1 58 -6 53 -6 53 -58 77 -28 13 -66 27 -83 30 -32 6 -32 6 -33
-37z"/>
<path d="M1196 1205 c-32 -13 -62 -28 -66 -32 -4 -4 -11 -32 -14 -62 -8 -63
-9 -63 78 18 47 45 55 40 12 -7 -17 -19 -18 -25 -7 -32 10 -6 13 -22 8 -63 -5
-54 -5 -55 16 -48 40 15 67 85 67 173 0 91 -1 92 -94 53z"/>
<path d="M780 1043 c1 -42 33 -105 69 -136 61 -51 175 -60 244 -19 44 25 87
91 94 142 l6 43 -72 -38 c-65 -34 -121 -83 -121 -105 0 -5 16 2 36 15 20 14
42 25 48 24 6 0 0 -8 -14 -17 -14 -9 -40 -31 -58 -48 -29 -30 -33 -31 -42 -14
-5 10 -31 32 -56 49 -26 17 -41 31 -32 31 8 0 32 -11 52 -25 20 -13 36 -20 36
-15 0 19 -73 81 -130 110 l-60 30 0 -27z"/>
<path d="M536 984 c-22 -21 -22 -187 0 -263 23 -84 59 -129 152 -191 81 -53
102 -76 121 -131 8 -22 19 -28 70 -38 34 -7 66 -9 72 -5 17 10 6 172 -14 211
-20 38 -65 77 -128 109 -32 16 -62 43 -88 78 -47 63 -53 68 -75 60 -33 -13
-14 -54 81 -179 l38 -50 -45 39 c-104 89 -130 145 -130 277 0 67 -3 80 -19 89
-15 7 -23 6 -35 -6z"/>
<path d="M1386 978 c-3 -7 -7 -54 -9 -104 -7 -112 -23 -147 -106 -229 -34 -33
-61 -57 -61 -54 0 4 27 41 60 83 68 90 78 112 57 133 -19 20 -29 13 -77 -52
-28 -38 -58 -63 -100 -86 -107 -57 -140 -113 -140 -242 0 -47 4 -69 13 -73 8
-3 40 1 72 8 50 11 60 17 66 40 13 48 47 84 119 127 84 50 122 99 150 189 22
70 27 202 10 246 -10 27 -47 36 -54 14z"/>
<path d="M680 966 c0 -6 9 -29 19 -51 56 -123 178 -170 258 -100 26 23 27 24
7 25 -34 0 -176 38 -187 49 -7 7 -1 8 21 2 28 -9 31 -8 23 7 -15 29 -44 48
-93 64 -33 10 -48 12 -48 4z"/>
<path d="M1270 970 c-8 -4 -30 -11 -49 -15 -27 -6 -96 -63 -87 -72 1 -2 17 2
36 7 23 7 30 6 23 -1 -11 -11 -154 -49 -186 -49 -19 0 -19 -1 -2 -20 9 -10 33
-24 51 -30 86 -29 184 37 222 149 14 39 13 43 -8 31z"/>
<path d="M386 954 c-21 -20 -20 -45 4 -138 44 -172 154 -315 302 -391 42 -22
80 -37 83 -33 15 15 -31 66 -92 104 -83 50 -146 120 -174 192 -18 48 -22 75
-21 170 l2 112 -44 0 c-27 0 -51 -6 -60 -16z"/>
<path d="M1478 848 c-3 -106 -7 -130 -29 -178 -36 -77 -69 -112 -158 -170 -70
-45 -112 -93 -96 -108 3 -3 31 7 62 22 184 90 309 267 338 477 8 60 -9 79 -70
79 l-43 0 -4 -122z"/>
<path d="M623 904 c-7 -19 11 -39 26 -30 16 10 13 33 -4 40 -9 3 -18 -1 -22
-10z"/>
<path d="M1313 904 c-7 -19 11 -39 26 -30 16 10 13 33 -4 40 -9 3 -18 -1 -22
-10z"/>
<path d="M990 694 l0 -89 31 38 c17 21 47 46 67 57 32 16 34 19 14 20 -28 0
-59 15 -89 43 l-23 20 0 -89z"/>
<path d="M931 744 c-19 -13 -45 -24 -59 -24 -23 0 -21 -3 20 -29 26 -17 54
-42 62 -58 15 -27 15 -25 16 55 0 45 -1 82 -2 81 -2 0 -18 -12 -37 -25z"/>
</g>
</svg>
